<svg width="178" height="40" viewBox="0 0 178 40" fill="#111C2D">
  <path d="M17.85 28.96 C15.8 30.23 14.21 29.56 12.87 27.79 ..."/>
  <path d="M26.21 10.18 C25.5 11.54 25.63 12.75 26.56 13.59 ..."/>
  <path d="M55.4 28.33 C54.24 28.33 53.2 28.13 52.27 27.73 ..."/>
  <path d="M69.49 28.33 C68.33 28.33 67.36 28.06 66.57 27.51 ..."/>
  <path d="M77.34 14.32 V11.89 H79.99 V14.32 H77.34 Z"/>
  <path d="M83.04 28 L83.06 12.16 H85.75 V21.84 L90.09 16.12 ..."/>
  <path d="M99.87 28.33 C98.66 28.33 97.61 28.07 96.7 27.55 ..."/>
  <path d="M110.56 28 L115.56 12.16 H119.44 L124.43 28 H121.71 ..."/>
  <path d="M130.97 28.33 C129.87 28.33 128.92 28.06 128.11 27.51 ..."/>
  <path d="M153.83 28 V20.78 C153.83 19.97 153.63 19.34 153.22 18.88 ..."/>
  <path d="M159.35 28 V16.12 H161.99 V28 H159.35 Z"/>
  <path d="M173.29 28 V22.28 C173.29 21.91 173.27 21.49 173.21 21.04 ..."/>
</svg>